<svg width="20" height="20" viewBox="0 0 20 20" fill="none" xmlns="http://www.w3.org/2000/svg">
<path d="M19.1585 18.05L15.448 14.35C16.4508 13.05 17.1528 11.35 17.1528 9.44995C17.1528 5.04995 13.5426 1.44995 9.13013 1.44995C4.71764 1.44995 1.10742 5.14995 1.10742 9.54995C1.10742 13.95 4.71764 17.55 9.13013 17.55C10.9352 17.55 12.6401 16.95 14.044 15.85L17.7545 19.55L19.1585 18.05ZM9.13013 15.55C5.82076 15.55 3.1131 12.85 3.1131 9.54995C3.1131 6.24995 5.82076 3.54995 9.13013 3.54995C12.4395 3.54995 15.1472 6.24995 15.1472 9.54995C15.1472 12.85 12.4395 15.55 9.13013 15.55Z" fill="black"/>
</svg>
