<svg width="20" height="17" viewBox="0 0 20 17" fill="none" xmlns="http://www.w3.org/2000/svg">
<path d="M10.5766 17C10.2758 17 9.97493 16.9 9.77436 16.6C4.35903 10.5 3.05534 9.1 2.75449 8.7C2.0525 7.8 1.65137 6.6 1.65137 5.4C1.65137 2.4 4.05818 0 7.16698 0C8.47067 0 9.67407 0.5 10.6769 1.3C11.6797 0.5 12.9834 0 14.1868 0C17.1954 0 19.7025 2.4 19.7025 5.4C19.7025 6.7 19.201 7.9 18.3988 8.8L11.3789 16.7C11.1783 16.9 10.9778 17 10.5766 17ZM4.5596 7.5C4.86045 7.9 8.06953 11.5 10.6769 14.4L16.8945 7.4C17.3959 6.9 17.5965 6.2 17.5965 5.4C17.5965 3.6 16.0922 2.1 14.2871 2.1C13.2843 2.1 12.2815 2.6 11.5795 3.4C11.2786 3.7 10.9778 3.8 10.6769 3.8C10.3761 3.8 10.0752 3.6 9.87464 3.4C9.17265 2.6 8.16982 2.1 7.16698 2.1C5.36187 2.1 3.85761 3.6 3.85761 5.4C3.75733 6.3 4.15846 7 4.5596 7.5C4.45931 7.5 4.45931 7.5 4.5596 7.5Z" fill="black"/>
</svg>
